<svg width="919" height="99" viewBox="0 0 919 99" fill="none" xmlns="http://www.w3.org/2000/svg">
<path d="M651.666 0.224338C654.139 2.10986 656.654 4.24752 659.411 5.69921C667.648 10.0376 674.037 6.22574 682.045 3.86931C694.543 0.190973 708.24 5.84755 717.288 14.5094C720.073 17.1755 723.195 21.4675 726.515 23.2826L727.07 22.9433C727.964 18.9182 725.478 13.9069 724.447 9.96525C723.953 8.07603 723.317 6.33512 724.51 4.635C725.757 2.85701 728.633 1.94115 730.649 1.5685C734.248 0.902914 741.189 0.719398 744.167 3.315C750.254 8.623 741.083 16.3727 742.473 22.096C742.67 22.9062 742.792 22.7301 743.61 23.2492C744.823 23.112 755.43 12.1141 758.044 10.2341C766.442 4.19564 777.331 1.09389 787.532 3.79146C791.974 4.96689 796.314 7.03226 800.894 7.62925C808.079 8.56923 813.422 4.24011 818.652 0.033382C818.669 9.55738 818.507 15.3345 811.824 22.7542C818.032 30.5577 816.274 44.5888 817.812 54.0942L817.946 54.8933C814.509 52.5016 811.655 49.7539 808.983 46.5465C807.839 51.1074 806.609 55.4347 804.11 59.4634C800.972 64.5174 796.203 68.2643 790.322 69.5232C783.756 70.9303 776.321 69.5195 770.797 65.6966C766.453 62.6894 763.427 58.3547 762.708 53.0764C762.159 49.0625 762.934 45.0226 765.506 41.8208C768.075 38.6226 772.343 36.1048 776.454 35.6784C779.617 35.3484 782.742 36.255 785.165 38.324C786.879 39.7868 788.676 42.2323 788.676 44.5925C788.674 46.0089 788.31 47.0453 787.271 48.0298C786.281 48.9698 785.087 49.2478 783.766 49.1384C782.474 48.471 782.032 47.8499 781.255 46.6133C780.087 44.7574 779.457 43.3948 777.32 42.6439C775.97 43.0759 775.174 43.2057 774.461 44.5832C773.584 46.2759 773.838 48.9159 774.509 50.6364C775.304 52.6703 777.235 54.2296 779.199 55.0843C782.606 56.5675 786.755 55.9352 790.038 54.4187C793.847 52.6611 797.315 49.4332 798.744 45.436C800.151 41.4962 799.606 37.1337 797.722 33.448C795.069 28.2512 790.354 24.484 784.785 22.7894C778.639 20.9187 770.914 21.2562 765.298 24.5544C757.948 28.8705 754.91 37.6232 752.972 45.4397C750.27 42.1044 747.363 39.3252 744.078 36.572C745.458 43.7173 744.693 59.5486 748.1 65.0179C748.78 66.11 750.343 68.1697 749.804 69.5287C749.219 71.0008 747.071 72.3617 746.194 73.8505C743.259 78.8433 743.389 85.7902 743.416 91.3967C760.376 76.739 766.1 89.0403 783.596 88.4674C798.685 87.9705 805.961 79.7851 815.863 70.1202C817.142 68.8724 817.697 68.2921 819.503 68.2755C820.495 73.8152 815.378 78.9897 815.54 84.0993C815.579 85.3582 816.372 86.6097 817.222 87.4755C819.334 89.628 823.468 90.0952 826.294 90.1712C829.516 90.2565 834.387 90.0377 836.684 87.3624C840.741 82.6365 834.073 75.3763 833.943 70.3575C833.908 69.0411 834.183 68.9485 835.084 68.1105C835.493 68.0808 835.944 67.836 836.31 68.0214C837.635 68.6963 839.543 71.8147 840.628 72.9605C843.788 76.2958 847.231 79.4291 851.051 81.9987C859.131 87.431 870.076 90.2991 879.669 87.7016C883.537 86.6523 887.203 84.7816 891.181 84.1253C898.928 82.8461 904.385 86.7432 910.373 90.948C910.342 88.2245 910.286 85.4824 910.1 82.7645C909.732 77.3248 907.926 73.1867 903.826 69.564C908.967 59.3003 908.279 47.9093 909.532 36.7464C906.49 39.3271 903.752 42.1693 900.974 45.0281C900.132 42.2156 899.226 39.3975 898.131 36.6721C895.811 30.8914 891.768 25.7428 885.874 23.3308C879.873 20.8742 872.352 21.004 866.44 23.6552C861.335 25.9449 856.913 30.3036 855.146 35.6728C853.812 39.7257 854.196 43.9472 856.216 47.709C858.39 51.7581 862.496 54.2944 866.847 55.5032C869.731 56.3041 872.822 56.2059 875.416 54.5967C875.71 54.4125 875.993 54.2135 876.265 53.9996C876.538 53.7858 876.799 53.559 877.049 53.3192C877.298 53.0782 877.534 52.8254 877.757 52.5609C877.98 52.2952 878.188 52.0189 878.381 51.7321C878.576 51.4454 878.755 51.1495 878.918 50.8442C879.082 50.5401 879.229 50.2273 879.359 49.906C879.49 49.5859 879.604 49.2595 879.7 48.927C879.797 48.5946 879.876 48.2585 879.938 47.9186C880.252 46.1258 879.989 44.8261 878.957 43.3188C874.428 40.1132 873.166 48.8141 867.65 49.7485C866.816 49.2572 866.505 49.2571 866.087 48.2875C865.235 46.3055 865.426 43.7118 866.217 41.7558C867.224 39.2696 868.949 37.5602 871.425 36.5591C874.931 35.1426 878.593 35.0926 882.051 36.6944C885.98 38.515 888.964 42.1248 890.322 46.1962C890.497 46.7202 890.644 47.2517 890.765 47.7906C890.886 48.3295 890.98 48.8733 891.047 49.4221C891.115 49.9697 891.155 50.5197 891.168 51.0722C891.179 51.6247 891.163 52.1766 891.121 52.7278C891.078 53.2779 891.008 53.8247 890.911 54.3685C890.813 54.9124 890.69 55.4501 890.54 55.9816C890.389 56.5131 890.212 57.0358 890.008 57.55C889.805 58.0642 889.577 58.5667 889.325 59.0574C886.876 63.8685 882.376 67.0666 877.278 68.6258C870.803 70.604 863.211 70.4947 857.26 67.0444C849.806 62.7227 846.882 54.7413 844.857 46.8821C841.988 49.932 838.868 52.6277 835.697 55.3568C837.88 44.0603 836.47 32.788 841.815 22.2536C835.075 15.6126 835.329 8.90476 835.13 0.159441C838.543 2.82549 842.137 5.67324 846.317 7.01553C857.093 10.4788 867.379 -1.30708 885.232 4.72213C889.81 6.26837 893.958 8.71382 897.747 11.6858C900.316 13.7029 908.161 22.6596 910.262 23.0694C910.372 22.9025 910.503 22.7467 910.594 22.5688C913.212 17.5148 908.426 14.5001 907.421 10.1173C907.036 8.44312 907.07 6.89131 908.09 5.41738C910.435 2.03569 915.066 1.461 918.784 0.613719C919.195 12.2439 918.894 23.9592 918.89 35.6005L918.927 99L0 98.9777L0.0852768 0.763881C3.63655 1.39053 8.99171 2.20999 10.973 5.66028C12.8984 9.01417 9.70572 13.4026 8.5302 16.5748C7.77606 18.6105 6.78503 20.7611 7.75766 22.8376L8.82171 23.1491C13.6234 19.5672 17.3818 14.7134 22.1378 11.0184C30.9461 4.17155 42.4414 0.886209 53.4161 3.97127C57.7278 5.18378 62.1505 7.24733 66.6302 7.67004C73.4477 8.31709 78.4538 4.17706 83.4413 0.207647C83.477 2.23098 83.4907 4.25498 83.4821 6.27954C83.424 12.8464 81.9049 17.5463 77.1447 22.2072C82.5349 32.8659 80.6798 44.2179 83.3004 55.5199C80.0304 52.7111 76.8704 49.9616 74.1186 46.6336C72.5487 52.7129 70.661 58.5086 66.2554 63.2141C62.1676 67.5802 56.5756 69.8476 50.632 70.0238C49.783 70.051 48.9349 70.0355 48.0875 69.9774C47.2402 69.9193 46.398 69.8179 45.5611 69.6733C44.724 69.5287 43.8965 69.3428 43.0785 69.1153C42.2604 68.8867 41.4561 68.6178 40.6656 68.3088C39.875 67.9986 39.1021 67.6494 38.3471 67.2613C37.592 66.8732 36.8587 66.4481 36.1471 65.9858C35.4355 65.5223 34.7492 65.0241 34.0883 64.4914C33.4275 63.9599 32.7954 63.3958 32.1921 62.7988C29.1712 59.7786 27.3228 55.8592 27.4052 51.5505C27.4168 51.019 27.454 50.4894 27.5169 49.9617C27.58 49.4339 27.6685 48.9104 27.7826 48.3912C27.8966 47.8721 28.0355 47.3598 28.1993 46.8543C28.3633 46.3488 28.5514 45.8519 28.7636 45.3637C28.9759 44.8767 29.2113 44.4009 29.4698 43.9362C29.7284 43.4714 30.009 43.0202 30.3116 42.5827C30.6141 42.1451 30.9371 41.7237 31.2807 41.3183C31.6243 40.9117 31.9868 40.5229 32.3682 40.1521C35.3677 37.271 39.6502 35.4152 43.8486 35.545C46.6747 35.6339 49.2422 36.7278 51.0578 38.9211C52.5576 40.7343 53.6794 43.1797 53.3864 45.5658C53.2004 47.0805 52.528 48.3264 51.2323 49.1904C50.4137 49.7354 50.0103 49.4462 49.0981 49.3109C47.0675 47.8814 46.3528 46.1535 44.8584 44.3292C44.042 43.3317 43.3845 42.718 42.0078 42.8719C40.5194 43.0369 39.5412 43.8916 38.5706 44.9391C37.997 46.5335 37.9084 47.3827 38.6482 48.9493C38.8289 49.3263 39.028 49.6934 39.2454 50.0506C39.4629 50.4078 39.6977 50.7533 39.9497 51.087C40.2017 51.4207 40.4697 51.7409 40.7538 52.0474C41.0379 52.3539 41.3366 52.6456 41.6499 52.9225C41.9632 53.2006 42.2896 53.4614 42.6291 53.7049C42.9685 53.9496 43.3192 54.177 43.6814 54.3871C44.0436 54.5972 44.4153 54.7882 44.7966 54.96C45.1779 55.1331 45.5669 55.2863 45.9635 55.4198C49.3366 56.5322 52.4927 55.8685 55.5882 54.2926C59.5321 52.2866 62.5002 49.1514 63.8078 44.8928C65.0691 40.7862 64.5541 36.5498 62.5098 32.7843C59.7454 27.6914 54.752 24.0316 49.1893 22.5224C43.1471 20.8816 35.8808 21.4174 30.4196 24.61C22.8232 29.0504 20.2172 37.373 18.0362 45.3026C15.2025 42.1063 12.2303 39.29 8.98985 36.5071C10.9964 46.7968 9.03333 60.0752 15.156 68.9725C8.69295 76.0326 8.60191 82.2324 8.71283 91.3114C10.6369 89.5631 12.6467 87.8796 14.8888 86.5466C23.4084 81.4778 30.9253 85.5621 39.5683 87.5125C52.5198 90.4363 64.3468 86.3111 73.7796 77.2191C76.7913 74.3157 79.7016 70.4613 83.2242 68.2346L84.4769 68.6722C86.6053 73.2497 79.7824 79.6275 81.0638 84.9374C81.4767 86.6486 82.3358 87.7759 83.892 88.625C87.4145 90.5476 95.5417 90.7218 99.3393 89.3795C107.743 86.4094 97.4925 74.1378 100.32 68.4386L101.062 68.2291C105.27 72.6249 109.387 77.0709 114.329 80.6676C123.247 87.1603 133.33 90.364 144.279 87.6034C148.686 86.491 153.08 84.7315 157.599 84.142C164.995 83.1797 169.91 86.8044 175.339 91.1687C175.424 86.7469 175.664 81.3536 174.218 77.1505C173.495 75.05 169.25 70.313 169.139 69.095C168.947 67.0185 172.109 62.5484 172.55 60.0974C173.886 52.6592 173.895 44.4219 174.484 36.865C171.357 39.4847 168.578 42.2991 165.852 45.3267C165.746 44.8075 165.64 44.2884 165.514 43.773C163.708 36.4348 160.233 28.4126 153.433 24.4506C147.984 21.2765 140.727 20.8612 134.726 22.5447C129.163 24.1039 124.182 27.8712 121.406 32.9568C119.414 36.6054 118.61 40.9883 119.905 45.004C121.298 49.335 124.871 52.4516 128.929 54.2871C132.182 55.7573 136.446 56.9698 139.911 55.5051C141.873 54.6745 143.28 52.9354 144.004 50.9646C144.751 48.9326 144.924 45.9551 143.785 44.0196C143.055 42.7774 142.587 42.7292 141.301 42.5567C138.73 43.8675 137.585 47.1101 135.37 49.042C134.618 49.2478 134.191 49.5407 133.421 49.2348C132.26 48.7713 130.982 47.5014 130.577 46.2963C130.153 45.03 130.575 43.2705 131.03 42.0599C132.004 39.4698 134.163 37.271 136.769 36.3088C140.175 35.0518 144.679 35.5709 147.91 37.106C151.462 38.7931 153.978 41.9672 155.195 45.6622C155.382 46.2122 155.54 46.7703 155.669 47.3364C155.799 47.9025 155.9 48.4735 155.971 49.0495C156.043 49.6267 156.086 50.2051 156.1 50.7848C156.112 51.3657 156.095 51.9461 156.049 52.5257C156.004 53.1042 155.929 53.6789 155.825 54.2499C155.721 54.8222 155.587 55.3871 155.425 55.9445C155.264 56.5019 155.075 57.05 154.857 57.5889C154.64 58.1278 154.396 58.6545 154.125 59.1686C151.455 64.1485 146.483 67.6339 141.087 69.1079C135.064 70.7524 127.931 70.1962 122.469 67.0796C114.636 62.6077 112.025 54.9118 109.85 46.7486C107.197 49.8763 104.203 52.4664 100.922 54.9063C102.845 44.7908 100.753 31.3382 106.985 22.743C100.365 15.2862 100.129 9.80214 100.378 0.244763C119.524 15.7145 121.744 2.27676 140.394 2.77178C153.372 3.11662 162.535 10.9442 171.138 19.747C172.604 21.2468 173.798 22.4594 175.991 22.4909C178.376 18.464 172.776 13.5268 172.399 9.43318C172.234 7.62738 172.786 5.95135 173.96 4.57197C175.667 2.56409 178.23 1.57035 180.799 1.33675C184.273 1.02157 190.908 0.745304 193.483 3.35574C197.872 7.80719 190.947 15.772 191.549 20.8798C191.692 22.1034 191.625 22.1832 192.647 22.9414C195.566 21.753 204.074 11.6339 210.091 8.08347C226.088 -1.35895 236.021 4.34396 252.176 8.37271C258.326 6.85613 262.303 4.03619 267.216 0.228072C267.426 9.59263 267.158 15.0582 260.869 22.4575C266.352 33.0457 264.544 44.2698 266.956 55.5589C263.823 52.7927 260.795 49.9165 257.872 46.9304C256.817 50.49 255.769 54.1924 254.008 57.4777C250.935 63.2066 246.214 67.5301 239.85 69.2618C239.077 69.4719 238.295 69.6431 237.504 69.7754C236.713 69.9076 235.918 70.001 235.118 70.0553C234.319 70.1097 233.519 70.1245 232.718 70.0998C231.916 70.0751 231.118 70.0108 230.323 69.907C229.529 69.8044 228.741 69.6622 227.959 69.4805C227.179 69.2988 226.409 69.0794 225.65 68.8224C224.892 68.5653 224.147 68.2718 223.417 67.9418C222.687 67.6105 221.975 67.2446 221.282 66.8441C216.641 64.1855 212.973 60.42 211.767 55.0823C210.818 50.883 211.529 46.3278 213.882 42.6996C216.254 39.0379 219.957 36.7927 224.212 35.9751C227.168 35.4077 230.997 35.2019 233.548 37.1115C235.278 38.4075 236.233 40.3116 236.552 42.4196C236.846 44.3607 236.58 46.9137 235.174 48.4228C234.167 49.5037 233.611 49.411 232.29 49.3109C230.332 48.0038 229.893 46.1461 228.684 44.2736C227.933 43.113 227.38 42.833 226.07 42.5771C224.446 43.1519 223.79 43.4652 222.638 44.8316C222.125 46.3203 221.971 47.1788 222.445 48.7176C223.262 51.3651 225.702 53.7326 228.197 54.832C231.593 56.3264 235.354 56.0409 238.693 54.5299C242.553 52.7834 246.048 49.5741 247.514 45.5454C248.919 41.6872 248.397 37.3823 246.632 33.7336C244.129 28.5572 239.363 24.6193 233.927 22.8209C227.822 20.8019 220.377 21.067 214.692 24.2132C206.807 28.5776 204.185 37.1597 201.744 45.1839C199.011 42.1155 196.031 39.3902 192.987 36.6351C194.364 46.2314 192.781 61.2914 199.089 68.8576C192.5 75.8286 192.471 82.0265 192.383 91.1056C211.99 76.1382 213.984 89.5409 232.704 88.5527C247.222 87.787 257.33 78.198 266.597 68.0603L267.457 68.3181C269.837 73.285 265.18 78.6746 264.951 83.8361C264.879 85.4806 265.285 87.0156 266.579 88.1262C269.421 90.5623 276.781 90.6125 280.273 89.9191C282.334 89.5094 284.311 88.6102 285.476 86.7803C288.352 82.2621 283.844 73.7689 282.938 68.8243L284.461 68.611L284.145 68.3014C289.556 71.9945 293.376 77.5603 298.892 81.3295C307.829 87.4329 318.426 90.3474 329.13 87.4755C333.05 86.4243 336.924 84.7075 340.943 84.0771C348.267 82.9276 353.575 86.9768 359.121 91.0296C359.271 86.3668 359.416 80.6416 357.553 76.2996C356.459 73.7503 353.434 71.5996 353.14 68.8334C352.888 66.4492 355.621 63.5979 356.078 61.1524C357.551 53.2933 357.64 44.5943 358.391 36.5905C355.253 39.3975 352.347 42.3918 349.43 45.4231C348.676 40.4562 346.708 35.0925 343.891 30.9118C340.599 26.0246 335.919 22.9933 330.085 22.0682C323.547 21.0318 315.927 22.2684 310.547 26.2842C310.069 26.6414 309.61 27.0209 309.172 27.4226C308.732 27.8255 308.314 28.2488 307.916 28.6925C307.518 29.1362 307.144 29.5986 306.792 30.0794C306.44 30.5602 306.114 31.0576 305.813 31.5718C305.511 32.0848 305.235 32.6118 304.986 33.1532C304.737 33.6933 304.515 34.2452 304.321 34.8088C304.126 35.3712 303.96 35.9423 303.823 36.522C303.687 37.1017 303.579 37.6862 303.5 38.2758C302.937 42.5994 304.189 46.7227 306.933 50.1044C309.551 53.3322 313.401 55.9056 317.64 56.1744C320.866 56.3784 324.076 55.062 326.416 52.865C328.004 51.3725 328.916 49.6724 328.883 47.4531C328.853 45.36 328.026 44.2105 326.549 42.8756C321.949 42.3157 321.479 49.0328 316.936 49.5946C315.974 49.018 315.496 48.4562 314.959 47.4903C313.938 45.6585 314.023 44.2717 314.675 42.3343C315.881 38.7523 318.491 37.2265 321.702 35.5691C325.039 35.6191 327.907 35.7748 331.038 37.1208C334.724 38.7078 337.357 41.3164 338.784 45.0819C340.441 49.4518 340.519 54.3464 338.444 58.5902C335.958 63.6683 330.878 67.1482 325.566 68.7649C319.327 70.6634 312.009 70.3538 306.268 67.0963C298.479 62.6783 295.713 54.9341 293.632 46.8228C290.717 49.9357 287.659 52.7333 284.367 55.4439C284.411 55.2585 284.458 55.0749 284.498 54.8895L284.699 53.9625C286.916 43.962 284.567 31.4365 290.756 22.7653C284.216 15.0527 283.891 9.91892 284.276 0.0815878C284.747 0.502446 285.217 0.927033 285.702 1.3312C301.279 14.3036 305.685 3.70988 321.628 2.76063C332.476 2.11544 342.875 7.91289 350.509 15.1305C353.263 17.7335 355.604 20.7759 358.465 23.2492C363.418 18.5178 354.149 10.6568 356.631 4.85934C357.107 3.74879 358.112 3.06652 359.188 2.59746C363.366 0.778682 371.972 0.828772 376.004 2.74581C383.114 6.12751 373.674 16.94 375.707 22.7857L376.489 23.1268C381.344 19.5115 385.01 14.4408 389.868 10.7365C398.333 4.28277 409.596 0.980795 420.097 3.78404C424.615 4.98914 429.052 7.16389 433.729 7.68487C440.867 8.47838 445.876 4.21971 451.009 0C451.217 4.7036 451.775 10.8274 449.627 15.1343C448.683 17.0216 447.154 18.5419 446.114 20.3569C444.382 23.3827 446.534 26.3769 447.52 29.4768C450.092 37.5621 448.793 46.9341 450.628 55.3308C447.355 52.7056 444.429 49.9227 441.686 46.7486C439.973 52.3607 438.251 57.8967 434.379 62.4594C433.898 63.0366 433.389 63.5873 432.85 64.1113C432.311 64.6341 431.746 65.1279 431.155 65.5927C430.565 66.0574 429.951 66.4895 429.314 66.8887C428.677 67.2879 428.022 67.6532 427.347 67.9844C426.671 68.3144 425.981 68.6085 425.275 68.8668C424.568 69.1252 423.849 69.3452 423.12 69.5269C422.39 69.7098 421.653 69.8539 420.909 69.9589C420.164 70.064 419.416 70.1294 418.664 70.1554C412.215 70.4242 405.46 68.1512 400.771 63.6646C397.205 60.2551 395.134 55.9055 395.085 50.9535C395.046 47.1268 396.155 43.3298 398.952 40.6026C403.086 36.5739 408.36 35.645 413.865 35.6098C415.58 36.5776 417.171 37.6436 418.445 39.1676C419.894 40.8993 421.652 43.3354 421.165 45.7438C420.868 47.2103 419.997 47.9371 418.878 48.8122C414.15 49.5204 412.836 43.747 408.795 42.5271C407.611 43.1167 407.283 43.5616 406.876 44.8409C406.257 46.7764 406.038 49.4444 407.078 51.2891C408.135 53.1654 409.724 54.3482 411.755 55.0379C415.482 56.3023 419.694 55.6609 423.179 53.9737C426.912 52.1679 430.046 49.0698 431.363 45.0874C432.716 41.0012 432.021 36.42 430 32.6749C427.328 27.7247 422.406 24.2355 417.044 22.7152C410.857 20.9595 403.104 21.41 397.491 24.7249C390.383 28.9243 387.397 37.6863 385.612 45.2729C382.944 42.0989 379.742 39.316 376.725 36.472C378.397 47.4476 376.985 59.5116 382.663 69.4287C382.251 69.7772 381.851 70.1406 381.466 70.5207C375.757 76.1568 376.149 83.7601 376.132 91.1761C380.069 88.0094 383.9 84.9206 389.08 84.142C394.595 83.3132 400.258 85.7124 405.48 87.1807C422.772 92.0419 436.722 83.0741 447.929 70.6189C448.997 69.4323 449.341 68.4312 450.95 68.231L451.858 69.1746C452.832 74.2935 448.419 78.3927 448.167 83.1055C448.066 84.9614 448.557 86.3001 449.878 87.6164C452.195 89.9228 456.962 90.2231 460.007 90.136C463.036 90.0489 467.545 89.7114 469.559 87.0658C472.747 82.8776 466.921 74.9276 466.65 70.1387C467.201 68.7501 467.183 68.739 468.487 68.0103C469.724 68.5702 470.362 69.653 471.194 70.6801C474.761 75.0796 478.771 78.8581 483.512 81.9858C491.929 87.5386 502.081 90.097 512.021 87.5904C515.974 86.5929 519.898 84.9299 523.902 84.2421C531.743 82.8924 536.761 86.5077 542.766 90.8516C542.786 87.6498 542.753 84.383 542.448 81.196C541.959 76.0697 539.932 72.6343 535.999 69.4231C541.876 60.2977 541.157 47.2307 541.937 36.7074C538.951 39.4365 536.168 42.2342 533.452 45.2302C531.943 39.8629 530.249 34.4233 526.873 29.8921C523.33 25.1366 518.427 22.5428 512.559 21.8976C505.954 21.1708 498.196 22.8673 493.053 27.2335C492.607 27.6142 492.181 28.0158 491.776 28.4386C491.371 28.8625 490.989 29.3063 490.628 29.7698C490.269 30.232 489.935 30.7122 489.625 31.2103C489.314 31.7071 489.03 32.2189 488.772 32.7454C488.514 33.2707 488.285 33.8083 488.083 34.3584C487.881 34.9084 487.707 35.467 487.563 36.0344C487.418 36.6017 487.302 37.1752 487.215 37.7548C487.13 38.3345 487.074 38.9167 487.048 39.5013C486.847 43.7173 488.471 47.7387 491.338 50.8108C494.101 53.7716 498.238 56.1855 502.382 56.2114C505.412 56.2318 508.241 54.8358 510.33 52.687C511.695 51.2817 512.894 49.1829 512.662 47.1584C512.461 45.4008 511.545 43.6562 510.202 42.5308C506.515 42.2472 505.211 48.0706 501.715 49.4444C500.397 49.1348 499.89 49.0032 499.201 47.6775C498.138 45.64 498.526 42.8126 499.342 40.7713C500.239 38.528 501.964 36.4645 504.305 35.658C507.909 34.414 512.537 36.0121 515.746 37.6845C519.294 39.5329 522.035 42.3157 523.215 46.1943C524.458 50.2823 523.928 54.9415 521.933 58.7014C519.241 63.7777 514.176 67.3522 508.717 68.9355C502.774 70.6597 495.528 70.4076 490.061 67.3244C482.29 62.9415 479.499 54.6874 477.271 46.6429C474.583 49.9301 471.551 52.5739 468.218 55.1825C470.564 44.8668 468.318 31.7405 474.403 22.6615C467.954 15.2399 467.636 9.81509 467.824 0.296647C487.886 14.8932 485.56 4.4181 503.786 2.82366C515.489 1.80025 526.055 7.55324 534.357 15.2622C537.103 17.8114 539.353 20.7889 542.247 23.1824L542.961 22.6374C544.46 17.0457 541.553 14.2257 540.258 9.06236C539.853 7.44567 539.75 5.53604 540.861 4.15481C542.314 2.34531 544.821 1.93006 546.968 1.59634C551.29 0.927043 557.104 0.928901 560.691 3.8026C566.182 8.19658 558.083 17.1477 558.677 23.0916C559.367 22.9859 560.08 22.9841 560.745 22.7764C562.451 22.2425 569.481 14.0385 571.649 12.2753C580.765 4.86861 592.386 0.812084 604.078 3.85635C608.676 5.05404 613.286 7.35114 618.055 7.73121C624.779 8.26516 629.844 4.11591 634.716 0.131661C635.052 9.10317 634.716 15.2733 628.36 22.3351C633.974 32.9029 631.594 44.2253 634.515 55.3141C631.169 52.7129 628.183 49.8819 625.337 46.7468C623.259 53.7939 621.151 60.6537 615.092 65.4129C610.094 69.3396 603.71 70.5614 597.486 69.7049C591.394 68.8669 585.357 65.7948 581.749 60.7186C579.234 57.1811 578.165 52.8501 578.923 48.5637C579.659 44.4126 582.028 40.8641 585.513 38.515C588.815 36.2884 593.326 34.8831 597.3 35.8101C599.898 36.4182 601.804 38.0274 603.145 40.2893C604.472 42.527 605.061 44.5182 604.409 47.0582C603.261 48.4432 602.896 48.6101 601.209 49.2812C597.005 48.7584 597.856 45.2969 595.221 42.9628C594.656 42.4603 593.781 42.3731 593.051 42.5252C591.816 42.781 590.822 43.5487 590.361 44.7278C589.722 46.363 590.26 48.612 590.957 50.1397C591.105 50.4635 591.268 50.7786 591.448 51.0851C591.627 51.3916 591.822 51.6877 592.033 51.9732C592.244 52.2599 592.469 52.535 592.709 52.7982C592.948 53.0615 593.2 53.3118 593.465 53.5491C593.73 53.7852 594.007 54.0077 594.294 54.2166C594.583 54.4254 594.881 54.6183 595.19 54.795C595.498 54.973 595.814 55.1343 596.139 55.2789C596.465 55.4235 596.797 55.5515 597.135 55.6627C600.418 56.7047 603.749 55.8981 606.701 54.2944C610.718 52.1085 614.245 48.7213 615.423 44.1976C616.495 40.0743 615.508 35.671 613.293 32.0928C610.193 27.0814 605.154 23.6719 599.428 22.3537C593.46 20.9799 586.266 21.512 581.008 24.8511C574.009 29.2933 571.008 37.8866 569.377 45.6011C569.24 45.4286 569.098 45.258 568.963 45.0837C566.46 41.8633 563.443 39.2288 560.442 36.4849C561.8 46.2888 560.636 59.6005 565.611 68.2346C566.146 69.1616 565.704 69.6066 565.28 70.5169C564.413 72.3858 562.787 73.8301 561.715 75.5932C559.136 79.8315 559.658 86.3315 559.809 91.1056C560.657 90.4468 561.514 89.7986 562.378 89.1608C563.411 88.4007 564.454 87.6442 565.533 86.9526C581.563 76.687 596.065 100.207 622.186 79.7406C626.254 76.5536 629.495 72.8437 633.001 69.0986C633.643 68.4107 633.833 68.2124 634.742 68.04L635.685 68.7761C636.938 73.7411 632.079 79.1585 631.955 84.1587C631.925 85.4176 632.633 86.6949 633.56 87.5422C636.3 90.0469 640.563 90.1861 644.074 90.0878C646.978 90.0081 651.474 89.9209 653.384 87.3698C656.381 83.3689 650.889 76.1791 650.688 71.7554C650.625 70.3483 650.895 69.0986 651.909 68.0696C653.191 68.5294 662.739 78.7153 665.453 80.7195C674.002 87.0323 684.819 90.2824 695.37 87.6961C699.853 86.5966 704.333 84.6147 708.92 84.0604C716.19 83.1816 721.101 86.9601 726.55 91.0593C726.637 80.9438 726.604 77.0839 720.168 69.0319C721.262 66.6199 722.875 63.9612 723.466 61.3842C725.173 53.9422 724.833 44.4645 725.965 36.5702C722.817 39.3271 719.982 42.2675 717.143 45.3377C715.583 39.1491 713.251 32.4654 708.751 27.7748C704.582 23.429 698.926 21.5936 692.984 21.6177C686.316 21.6418 679.576 24.3708 674.973 29.232C671.973 32.4024 670.249 36.3459 670.5 40.7491C670.745 45.056 672.881 48.9494 676.135 51.7434C679.466 54.6022 684.501 56.6082 688.945 56.0706C691.045 55.8147 692.942 54.8098 694.188 53.0875C695.578 51.1649 696.752 47.722 696.065 45.3637C695.684 44.0566 694.82 43.5097 693.735 42.8163C689.614 42.6847 689.133 47.8555 685.895 49.4277C685.135 49.7966 684.635 49.3998 683.893 49.1588C682.691 47.9129 681.471 46.5336 681.584 44.6611C681.807 41.0031 684.577 38.3092 687.347 36.3088C690.889 35.4374 694.237 35.3837 697.7 36.713C701.693 38.2444 704.974 41.5983 706.62 45.5195C706.818 46.0028 706.991 46.4946 707.14 46.9952C707.288 47.497 707.408 48.0045 707.502 48.5174C707.598 49.0316 707.666 49.5488 707.707 50.0692C707.749 50.5895 707.763 51.1111 707.75 51.6339C707.737 52.1555 707.697 52.6753 707.631 53.1931C707.564 53.711 707.47 54.224 707.35 54.732C707.23 55.24 707.084 55.7406 706.912 56.2337C706.738 56.7269 706.541 57.2101 706.319 57.6835C703.913 62.9174 698.902 66.7348 693.523 68.561C687.268 70.6838 679.778 70.4002 673.914 67.2317C666.05 62.9805 663.268 54.9266 660.996 46.9025C658.118 49.9672 655.06 52.7204 651.887 55.4773C654.211 44.8186 652.156 32.2263 658.096 22.6503C651.844 15.1676 651.374 9.69272 651.666 0.224338Z" fill="#F0F0F0"/>
</svg>
