<svg width="919" height="99" viewBox="0 0 919 99" fill="none" xmlns="http://www.w3.org/2000/svg">
<path d="M651.666 98.7757C654.139 96.8901 656.654 94.7525 659.411 93.3008C667.648 88.9624 674.037 92.7743 682.045 95.1307C694.543 98.809 708.24 93.1524 717.288 84.4906C720.073 81.8245 723.195 77.5325 726.515 75.7174L727.07 76.0567C727.964 80.0818 725.478 85.0931 724.447 89.0347C723.953 90.924 723.317 92.6649 724.51 94.365C725.757 96.143 728.633 97.0588 730.649 97.4315C734.248 98.0971 741.189 98.2806 744.167 95.685C750.254 90.377 741.083 82.6273 742.473 76.904C742.67 76.0938 742.792 76.2699 743.61 75.7508C744.823 75.888 755.43 86.8859 758.044 88.7659C766.442 94.8044 777.331 97.9061 787.532 95.2085C791.974 94.0331 796.314 91.9677 800.894 91.3707C808.079 90.4308 813.422 94.7599 818.652 98.9666C818.669 89.4426 818.507 83.6655 811.824 76.2458C818.032 68.4423 816.274 54.4112 817.812 44.9058L817.946 44.1067C814.509 46.4984 811.655 49.2461 808.983 52.4535C807.839 47.8926 806.609 43.5653 804.11 39.5366C800.972 34.4826 796.203 30.7357 790.322 29.4768C783.756 28.0697 776.321 29.4805 770.797 33.3034C766.453 36.3106 763.427 40.6453 762.708 45.9236C762.159 49.9375 762.934 53.9774 765.506 57.1792C768.075 60.3774 772.343 62.8952 776.454 63.3216C779.617 63.6516 782.742 62.745 785.165 60.676C786.879 59.2132 788.676 56.7677 788.676 54.4075C788.674 52.9911 788.31 51.9547 787.271 50.9702C786.281 50.0302 785.087 49.7522 783.766 49.8616C782.474 50.529 782.032 51.1501 781.255 52.3867C780.087 54.2426 779.457 55.6052 777.32 56.3561C775.97 55.9241 775.174 55.7943 774.461 54.4168C773.584 52.7241 773.838 50.0841 774.509 48.3636C775.304 46.3297 777.235 44.7704 779.199 43.9157C782.606 42.4325 786.755 43.0648 790.038 44.5813C793.847 46.3389 797.315 49.5668 798.744 53.564C800.151 57.5038 799.606 61.8663 797.722 65.552C795.069 70.7488 790.354 74.516 784.785 76.2106C778.639 78.0813 770.914 77.7438 765.298 74.4456C757.948 70.1295 754.91 61.3768 752.972 53.5603C750.27 56.8956 747.363 59.6748 744.078 62.428C745.458 55.2827 744.693 39.4514 748.1 33.9821C748.78 32.89 750.343 30.8303 749.804 29.4713C749.219 27.9992 747.071 26.6383 746.194 25.1495C743.259 20.1567 743.389 13.2098 743.416 7.60328C760.376 22.261 766.1 9.95975 783.596 10.5326C798.685 11.0295 805.961 19.2149 815.863 28.8798C817.142 30.1276 817.697 30.7079 819.503 30.7245C820.495 25.1848 815.378 20.0103 815.54 14.9007C815.579 13.6418 816.372 12.3903 817.222 11.5245C819.334 9.37198 823.468 8.90481 826.294 8.8288C829.516 8.74351 834.387 8.96231 836.684 11.6376C840.741 16.3635 834.073 23.6237 833.943 28.6425C833.908 29.9589 834.183 30.0515 835.084 30.8895C835.493 30.9192 835.944 31.164 836.31 30.9786C837.635 30.3037 839.543 27.1853 840.628 26.0395C843.788 22.7042 847.231 19.5709 851.051 17.0013C859.131 11.569 870.076 8.70093 879.669 11.2984C883.537 12.3477 887.203 14.2184 891.181 14.8747C898.928 16.1539 904.385 12.2568 910.373 8.05196C910.342 10.7755 910.286 13.5176 910.1 16.2355C909.732 21.6752 907.926 25.8133 903.826 29.436C908.967 39.6997 908.279 51.0907 909.532 62.2536C906.49 59.6729 903.752 56.8307 900.974 53.9719C900.132 56.7844 899.226 59.6025 898.131 62.3279C895.811 68.1086 891.768 73.2572 885.874 75.6692C879.873 78.1258 872.352 77.996 866.44 75.3448C861.335 73.0551 856.913 68.6964 855.146 63.3272C853.812 59.2743 854.196 55.0528 856.216 51.291C858.39 47.2419 862.496 44.7056 866.847 43.4968C869.731 42.6959 872.822 42.7941 875.416 44.4033C875.71 44.5875 875.993 44.7865 876.265 45.0004C876.538 45.2142 876.799 45.441 877.049 45.6808C877.298 45.9218 877.534 46.1746 877.757 46.4391C877.98 46.7048 878.188 46.9811 878.381 47.2679C878.576 47.5546 878.755 47.8505 878.918 48.1558C879.082 48.4599 879.229 48.7727 879.359 49.094C879.49 49.4141 879.604 49.7405 879.7 50.073C879.797 50.4054 879.876 50.7415 879.938 51.0814C880.252 52.8742 879.989 54.1739 878.957 55.6812C874.428 58.8868 873.166 50.1859 867.65 49.2515C866.816 49.7428 866.505 49.7429 866.087 50.7125C865.235 52.6945 865.426 55.2882 866.217 57.2442C867.224 59.7304 868.949 61.4398 871.425 62.4409C874.931 63.8574 878.593 63.9074 882.051 62.3056C885.98 60.485 888.964 56.8752 890.322 52.8038C890.497 52.2798 890.644 51.7483 890.765 51.2094C890.886 50.6705 890.98 50.1267 891.047 49.5779C891.115 49.0303 891.155 48.4803 891.168 47.9278C891.179 47.3753 891.163 46.8234 891.121 46.2722C891.078 45.7221 891.008 45.1753 890.911 44.6315C890.813 44.0876 890.69 43.5499 890.54 43.0184C890.389 42.4869 890.212 41.9642 890.008 41.45C889.805 40.9358 889.577 40.4333 889.325 39.9426C886.876 35.1315 882.376 31.9334 877.278 30.3742C870.803 28.396 863.211 28.5053 857.26 31.9556C849.806 36.2773 846.882 44.2587 844.857 52.1179C841.988 49.068 838.868 46.3723 835.697 43.6432C837.88 54.9397 836.47 66.212 841.815 76.7464C835.075 83.3874 835.329 90.0952 835.13 98.8406C838.543 96.1745 842.137 93.3268 846.317 91.9845C857.093 88.5212 867.379 100.307 885.232 94.2779C889.81 92.7316 893.958 90.2862 897.747 87.3142C900.316 85.2971 908.161 76.3404 910.262 75.9306C910.372 76.0975 910.503 76.2533 910.594 76.4312C913.212 81.4852 908.426 84.4999 907.421 88.8827C907.036 90.5569 907.07 92.1087 908.09 93.5826C910.435 96.9643 915.066 97.539 918.784 98.3863C919.195 86.7561 918.894 75.0408 918.89 63.3995L918.927 2.05876e-06L0 0.0222944L0.0852768 98.2361C3.63655 97.6095 8.99171 96.79 10.973 93.3397C12.8984 89.9858 9.70572 85.5974 8.5302 82.4252C7.77606 80.3895 6.78503 78.2389 7.75766 76.1624L8.82171 75.8509C13.6234 79.4328 17.3818 84.2866 22.1378 87.9816C30.9461 94.8285 42.4414 98.1138 53.4161 95.0287C57.7278 93.8162 62.1505 91.7527 66.6302 91.33C73.4477 90.6829 78.4538 94.8229 83.4413 98.7924C83.477 96.769 83.4907 94.745 83.4821 92.7205C83.424 86.1536 81.9049 81.4537 77.1447 76.7928C82.5349 66.1341 80.6798 54.7821 83.3004 43.4801C80.0304 46.2889 76.8704 49.0384 74.1186 52.3664C72.5487 46.2871 70.661 40.4914 66.2554 35.7859C62.1676 31.4198 56.5756 29.1524 50.632 28.9762C49.783 28.949 48.9349 28.9645 48.0875 29.0226C47.2402 29.0807 46.398 29.1821 45.5611 29.3267C44.724 29.4713 43.8965 29.6572 43.0785 29.8847C42.2604 30.1133 41.4561 30.3822 40.6656 30.6912C39.875 31.0014 39.1021 31.3506 38.3471 31.7387C37.592 32.1268 36.8587 32.5519 36.1471 33.0142C35.4355 33.4777 34.7492 33.9759 34.0883 34.5086C33.4275 35.0401 32.7954 35.6042 32.1921 36.2012C29.1712 39.2214 27.3228 43.1408 27.4052 47.4495C27.4168 47.981 27.454 48.5106 27.5169 49.0383C27.58 49.5661 27.6685 50.0896 27.7826 50.6088C27.8966 51.1279 28.0355 51.6402 28.1993 52.1457C28.3633 52.6512 28.5514 53.1481 28.7636 53.6363C28.9759 54.1233 29.2113 54.5991 29.4698 55.0638C29.7284 55.5286 30.009 55.9798 30.3116 56.4173C30.6141 56.8549 30.9371 57.2763 31.2807 57.6817C31.6243 58.0883 31.9868 58.4771 32.3682 58.8479C35.3677 61.729 39.6502 63.5848 43.8486 63.455C46.6747 63.3661 49.2422 62.2722 51.0578 60.0789C52.5576 58.2657 53.6794 55.8203 53.3864 53.4342C53.2004 51.9195 52.528 50.6736 51.2323 49.8096C50.4137 49.2646 50.0103 49.5538 49.0981 49.6891C47.0675 51.1186 46.3528 52.8465 44.8584 54.6708C44.042 55.6683 43.3845 56.282 42.0078 56.1281C40.5194 55.9631 39.5412 55.1084 38.5706 54.0609C37.997 52.4665 37.9084 51.6173 38.6482 50.0507C38.8289 49.6737 39.028 49.3066 39.2454 48.9494C39.4629 48.5922 39.6977 48.2467 39.9497 47.913C40.2017 47.5793 40.4697 47.2591 40.7538 46.9526C41.0379 46.6461 41.3366 46.3544 41.6499 46.0775C41.9632 45.7994 42.2896 45.5386 42.6291 45.2951C42.9685 45.0504 43.3192 44.823 43.6814 44.6129C44.0436 44.4028 44.4153 44.2118 44.7966 44.04C45.1779 43.8669 45.5669 43.7137 45.9635 43.5802C49.3366 42.4678 52.4927 43.1315 55.5882 44.7074C59.5321 46.7134 62.5002 49.8486 63.8078 54.1072C65.0691 58.2138 64.5541 62.4502 62.5098 66.2157C59.7454 71.3086 54.752 74.9684 49.1893 76.4776C43.1471 78.1184 35.8808 77.5826 30.4196 74.39C22.8232 69.9496 20.2172 61.627 18.0362 53.6974C15.2025 56.8937 12.2303 59.71 8.98985 62.4929C10.9964 52.2032 9.03333 38.9248 15.156 30.0275C8.69295 22.9674 8.60191 16.7676 8.71283 7.6886C10.6369 9.43693 12.6467 11.1204 14.8888 12.4534C23.4084 17.5222 30.9253 13.4379 39.5683 11.4875C52.5198 8.56371 64.3468 12.6889 73.7796 21.7809C76.7913 24.6843 79.7016 28.5387 83.2242 30.7654L84.4769 30.3278C86.6053 25.7503 79.7824 19.3725 81.0638 14.0626C81.4767 12.3514 82.3358 11.2241 83.892 10.375C87.4145 8.45241 95.5417 8.27816 99.3393 9.62046C107.743 12.5906 97.4925 24.8622 100.32 30.5614L101.062 30.7709C105.27 26.3751 109.387 21.9291 114.329 18.3324C123.247 11.8397 133.33 8.636 144.279 11.3966C148.686 12.509 153.08 14.2685 157.599 14.858C164.995 15.8203 169.91 12.1956 175.339 7.8313C175.424 12.2531 175.664 17.6464 174.218 21.8495C173.495 23.95 169.25 28.687 169.139 29.905C168.947 31.9815 172.109 36.4516 172.55 38.9026C173.886 46.3408 173.895 54.5781 174.484 62.135C171.357 59.5153 168.578 56.7009 165.852 53.6733C165.746 54.1925 165.64 54.7116 165.514 55.227C163.708 62.5652 160.233 70.5874 153.433 74.5494C147.984 77.7235 140.727 78.1388 134.726 76.4553C129.163 74.8961 124.182 71.1288 121.406 66.0432C119.414 62.3946 118.61 58.0117 119.905 53.996C121.298 49.665 124.871 46.5484 128.929 44.7129C132.182 43.2427 136.446 42.0302 139.911 43.4949C141.873 44.3255 143.28 46.0646 144.004 48.0354C144.751 50.0674 144.924 53.0449 143.785 54.9804C143.055 56.2226 142.587 56.2708 141.301 56.4433C138.73 55.1325 137.585 51.8899 135.37 49.958C134.618 49.7522 134.191 49.4593 133.421 49.7652C132.26 50.2287 130.982 51.4986 130.577 52.7037C130.153 53.97 130.575 55.7295 131.03 56.9401C132.004 59.5302 134.163 61.729 136.769 62.6912C140.175 63.9482 144.679 63.4291 147.91 61.894C151.462 60.2069 153.978 57.0328 155.195 53.3378C155.382 52.7878 155.54 52.2297 155.669 51.6636C155.799 51.0975 155.9 50.5265 155.971 49.9505C156.043 49.3733 156.086 48.7949 156.1 48.2152C156.112 47.6343 156.095 47.0539 156.049 46.4743C156.004 45.8958 155.929 45.3211 155.825 44.7501C155.721 44.1778 155.587 43.6129 155.425 43.0555C155.264 42.4981 155.075 41.95 154.857 41.4111C154.64 40.8722 154.396 40.3455 154.125 39.8314C151.455 34.8515 146.483 31.3661 141.087 29.8921C135.064 28.2476 127.931 28.8038 122.469 31.9204C114.636 36.3923 112.025 44.0882 109.85 52.2514C107.197 49.1237 104.203 46.5336 100.922 44.0937C102.845 54.2092 100.753 67.6618 106.985 76.257C100.365 83.7138 100.129 89.1979 100.378 98.7552C119.524 83.2855 121.744 96.7232 140.394 96.2282C153.372 95.8834 162.535 88.0558 171.138 79.253C172.604 77.7532 173.798 76.5406 175.991 76.5091C178.376 80.536 172.776 85.4732 172.399 89.5668C172.234 91.3726 172.786 93.0487 173.96 94.428C175.667 96.4359 178.23 97.4296 180.799 97.6633C184.273 97.9784 190.908 98.2547 193.483 95.6443C197.872 91.1928 190.947 83.228 191.549 78.1202C191.692 76.8966 191.625 76.8168 192.647 76.0586C195.566 77.247 204.074 87.3661 210.091 90.9165C226.088 100.359 236.021 94.656 252.176 90.6273C258.326 92.1439 262.303 94.9638 267.216 98.7719C267.426 89.4074 267.158 83.9418 260.869 76.5425C266.352 65.9543 264.544 54.7302 266.956 43.4411C263.823 46.2073 260.795 49.0835 257.872 52.0696C256.817 48.51 255.769 44.8076 254.008 41.5223C250.935 35.7934 246.214 31.4699 239.85 29.7382C239.077 29.5281 238.295 29.3569 237.504 29.2246C236.713 29.0924 235.918 28.999 235.118 28.9447C234.319 28.8903 233.519 28.8755 232.718 28.9002C231.916 28.9249 231.118 28.9892 230.323 29.093C229.529 29.1956 228.741 29.3378 227.959 29.5195C227.179 29.7012 226.409 29.9206 225.65 30.1776C224.892 30.4347 224.147 30.7282 223.417 31.0582C222.687 31.3895 221.975 31.7554 221.282 32.1559C216.641 34.8145 212.973 38.58 211.767 43.9177C210.818 48.117 211.529 52.6722 213.882 56.3004C216.254 59.9621 219.957 62.2073 224.212 63.0249C227.168 63.5923 230.997 63.7981 233.548 61.8885C235.278 60.5925 236.233 58.6884 236.552 56.5804C236.846 54.6393 236.58 52.0863 235.174 50.5772C234.167 49.4963 233.611 49.589 232.29 49.6891C230.332 50.9962 229.893 52.8539 228.684 54.7264C227.933 55.887 227.38 56.167 226.07 56.4229C224.446 55.8481 223.79 55.5348 222.638 54.1684C222.125 52.6797 221.971 51.8212 222.445 50.2824C223.262 47.6349 225.702 45.2674 228.197 44.168C231.593 42.6736 235.354 42.9591 238.693 44.4701C242.553 46.2166 246.048 49.4259 247.514 53.4546C248.919 57.3128 248.397 61.6177 246.632 65.2664C244.129 70.4428 239.363 74.3807 233.927 76.1791C227.822 78.1981 220.377 77.933 214.692 74.7868C206.807 70.4224 204.185 61.8403 201.744 53.8161C199.011 56.8845 196.031 59.6098 192.987 62.3649C194.364 52.7686 192.781 37.7086 199.089 30.1424C192.5 23.1714 192.471 16.9735 192.383 7.89444C211.99 22.8618 213.984 9.45913 232.704 10.4473C247.222 11.213 257.33 20.802 266.597 30.9397L267.457 30.6819C269.837 25.715 265.18 20.3254 264.951 15.1639C264.879 13.5194 265.285 11.9844 266.579 10.8738C269.421 8.43765 276.781 8.38752 280.273 9.08092C282.334 9.49065 284.311 10.3898 285.476 12.2197C288.352 16.7379 283.844 25.2311 282.938 30.1757L284.461 30.389L284.145 30.6986C289.556 27.0055 293.376 21.4397 298.892 17.6705C307.829 11.5671 318.426 8.65263 329.13 11.5245C333.05 12.5757 336.924 14.2925 340.943 14.9229C348.267 16.0724 353.575 12.0232 359.121 7.97037C359.271 12.6332 359.416 18.3584 357.553 22.7004C356.459 25.2497 353.434 27.4004 353.14 30.1666C352.888 32.5508 355.621 35.4021 356.078 37.8476C357.551 45.7067 357.64 54.4057 358.391 62.4095C355.253 59.6025 352.347 56.6082 349.43 53.5769C348.676 58.5438 346.708 63.9075 343.891 68.0882C340.599 72.9754 335.919 76.0067 330.085 76.9318C323.547 77.9682 315.927 76.7316 310.547 72.7158C310.069 72.3586 309.61 71.9791 309.172 71.5774C308.732 71.1745 308.314 70.7512 307.916 70.3075C307.518 69.8638 307.144 69.4014 306.792 68.9206C306.44 68.4398 306.114 67.9424 305.813 67.4282C305.511 66.9152 305.235 66.3882 304.986 65.8468C304.737 65.3067 304.515 64.7548 304.321 64.1912C304.126 63.6288 303.96 63.0577 303.823 62.478C303.687 61.8983 303.579 61.3138 303.5 60.7242C302.937 56.4006 304.189 52.2773 306.933 48.8956C309.551 45.6678 313.401 43.0944 317.64 42.8256C320.866 42.6216 324.076 43.938 326.416 46.135C328.004 47.6275 328.916 49.3276 328.883 51.5469C328.853 53.64 328.026 54.7895 326.549 56.1244C321.949 56.6843 321.479 49.9672 316.936 49.4054C315.974 49.982 315.496 50.5438 314.959 51.5097C313.938 53.3415 314.023 54.7283 314.675 56.6657C315.881 60.2477 318.491 61.7735 321.702 63.4309C325.039 63.3809 327.907 63.2252 331.038 61.8792C334.724 60.2922 337.357 57.6836 338.784 53.9181C340.441 49.5482 340.519 44.6536 338.444 40.4098C335.958 35.3317 330.878 31.8518 325.566 30.2351C319.327 28.3366 312.009 28.6462 306.268 31.9037C298.479 36.3217 295.713 44.0659 293.632 52.1772C290.717 49.0643 287.659 46.2667 284.367 43.5561C284.411 43.7415 284.458 43.9251 284.498 44.1105L284.699 45.0375C286.916 55.038 284.567 67.5635 290.756 76.2347C284.216 83.9473 283.891 89.0811 284.276 98.9184C284.747 98.4976 285.217 98.073 285.702 97.6688C301.279 84.6964 305.685 95.2901 321.628 96.2394C332.476 96.8846 342.875 91.0871 350.509 83.8695C353.263 81.2665 355.604 78.2241 358.465 75.7508C363.418 80.4822 354.149 88.3432 356.631 94.1407C357.107 95.2512 358.112 95.9335 359.188 96.4025C363.366 98.2213 371.972 98.1712 376.004 96.2542C383.114 92.8725 373.674 82.06 375.707 76.2143L376.489 75.8732C381.344 79.4885 385.01 84.5592 389.868 88.2635C398.333 94.7172 409.596 98.0192 420.097 95.216C424.615 94.0109 429.052 91.8361 433.729 91.3151C440.867 90.5216 445.876 94.7803 451.009 99C451.217 94.2964 451.775 88.1726 449.627 83.8657C448.683 81.9784 447.154 80.4581 446.114 78.6431C444.382 75.6173 446.534 72.6231 447.52 69.5232C450.092 61.4379 448.793 52.0659 450.628 43.6692C447.355 46.2944 444.429 49.0773 441.686 52.2514C439.973 46.6393 438.251 41.1033 434.379 36.5406C433.898 35.9634 433.389 35.4127 432.85 34.8887C432.311 34.3659 431.746 33.8721 431.155 33.4073C430.565 32.9426 429.951 32.5105 429.314 32.1113C428.677 31.7121 428.022 31.3468 427.347 31.0156C426.671 30.6856 425.981 30.3915 425.275 30.1332C424.568 29.8748 423.849 29.6548 423.12 29.4731C422.39 29.2902 421.653 29.1461 420.909 29.0411C420.164 28.936 419.416 28.8706 418.664 28.8446C412.215 28.5758 405.46 30.8488 400.771 35.3354C397.205 38.7449 395.134 43.0945 395.085 48.0465C395.046 51.8732 396.155 55.6702 398.952 58.3974C403.086 62.4261 408.36 63.355 413.865 63.3902C415.58 62.4224 417.171 61.3564 418.445 59.8324C419.894 58.1007 421.652 55.6646 421.165 53.2562C420.868 51.7897 419.997 51.0629 418.878 50.1878C414.15 49.4796 412.836 55.253 408.795 56.4729C407.611 55.8833 407.283 55.4384 406.876 54.1591C406.257 52.2236 406.038 49.5556 407.078 47.7109C408.135 45.8346 409.724 44.6518 411.755 43.9621C415.482 42.6977 419.694 43.3391 423.179 45.0263C426.912 46.8321 430.046 49.9302 431.363 53.9126C432.716 57.9988 432.021 62.58 430 66.3251C427.328 71.2753 422.406 74.7645 417.044 76.2848C410.857 78.0405 403.104 77.59 397.491 74.2751C390.383 70.0757 387.397 61.3137 385.612 53.7271C382.944 56.9011 379.742 59.684 376.725 62.528C378.397 51.5524 376.985 39.4884 382.663 29.5713C382.251 29.2228 381.851 28.8594 381.466 28.4793C375.757 22.8432 376.149 15.2399 376.132 7.82394C380.069 10.9906 383.9 14.0794 389.08 14.858C394.595 15.6868 400.258 13.2876 405.48 11.8193C422.772 6.95807 436.722 15.9259 447.929 28.3811C448.997 29.5677 449.341 30.5688 450.95 30.769L451.858 29.8254C452.832 24.7065 448.419 20.6073 448.167 15.8945C448.066 14.0386 448.557 12.6999 449.878 11.3836C452.195 9.07722 456.962 8.77685 460.007 8.86399C463.036 8.95113 467.545 9.28857 469.559 11.9342C472.747 16.1224 466.921 24.0724 466.65 28.8613C467.201 30.2499 467.183 30.261 468.487 30.9897C469.724 30.4298 470.362 29.347 471.194 28.3199C474.761 23.9204 478.771 20.1419 483.512 17.0142C491.929 11.4614 502.081 8.90301 512.021 11.4096C515.974 12.4071 519.898 14.0701 523.902 14.7579C531.743 16.1076 536.761 12.4923 542.766 8.14837C542.786 11.3502 542.753 14.617 542.448 17.804C541.959 22.9303 539.932 26.3657 535.999 29.5769C541.876 38.7023 541.157 51.7693 541.937 62.2926C538.951 59.5635 536.168 56.7658 533.452 53.7698C531.943 59.1371 530.249 64.5767 526.873 69.1079C523.33 73.8634 518.427 76.4572 512.559 77.1024C505.954 77.8292 498.196 76.1327 493.053 71.7665C492.607 71.3858 492.181 70.9842 491.776 70.5614C491.371 70.1375 490.989 69.6937 490.628 69.2302C490.269 68.768 489.935 68.2878 489.625 67.7897C489.314 67.2929 489.03 66.7811 488.772 66.2546C488.514 65.7293 488.285 65.1917 488.083 64.6416C487.881 64.0916 487.707 63.533 487.563 62.9656C487.418 62.3983 487.302 61.8248 487.215 61.2452C487.13 60.6655 487.074 60.0833 487.048 59.4987C486.847 55.2827 488.471 51.2613 491.338 48.1892C494.101 45.2284 498.238 42.8145 502.382 42.7886C505.412 42.7682 508.241 44.1642 510.33 46.313C511.695 47.7183 512.894 49.8171 512.662 51.8416C512.461 53.5992 511.545 55.3438 510.202 56.4692C506.515 56.7528 505.211 50.9294 501.715 49.5556C500.397 49.8652 499.89 49.9968 499.201 51.3225C498.138 53.36 498.526 56.1874 499.342 58.2287C500.239 60.472 501.964 62.5355 504.305 63.342C507.909 64.586 512.537 62.9879 515.746 61.3155C519.294 59.4671 522.035 56.6843 523.215 52.8057C524.458 48.7177 523.928 44.0585 521.933 40.2986C519.241 35.2223 514.176 31.6478 508.717 30.0645C502.774 28.3403 495.528 28.5924 490.061 31.6756C482.29 36.0585 479.499 44.3126 477.271 52.3571C474.583 49.0699 471.551 46.4261 468.218 43.8175C470.564 54.1332 468.318 67.2595 474.403 76.3385C467.954 83.7601 467.636 89.1849 467.824 98.7034C487.886 84.1068 485.56 94.5819 503.786 96.1763C515.489 97.1997 526.055 91.4468 534.357 83.7378C537.103 81.1886 539.353 78.2111 542.247 75.8176L542.961 76.3626C544.46 81.9543 541.553 84.7743 540.258 89.9376C539.853 91.5543 539.75 93.464 540.861 94.8452C542.314 96.6547 544.821 97.0699 546.968 97.4037C551.29 98.073 557.104 98.0711 560.691 95.1974C566.182 90.8034 558.083 81.8523 558.677 75.9084C559.367 76.0141 560.08 76.0159 560.745 76.2236C562.451 76.7575 569.481 84.9615 571.649 86.7247C580.765 94.1314 592.386 98.1879 604.078 95.1436C608.676 93.946 613.286 91.6489 618.055 91.2688C624.779 90.7348 629.844 94.8841 634.716 98.8683C635.052 89.8968 634.716 83.7267 628.36 76.6649C633.974 66.0971 631.594 54.7747 634.515 43.6859C631.169 46.2871 628.183 49.1181 625.337 52.2532C623.259 45.2061 621.151 38.3463 615.092 33.5871C610.094 29.6604 603.71 28.4386 597.486 29.2951C591.394 30.1331 585.357 33.2052 581.749 38.2814C579.234 41.8189 578.165 46.1499 578.923 50.4363C579.659 54.5874 582.028 58.1359 585.513 60.485C588.815 62.7116 593.326 64.1169 597.3 63.1899C599.898 62.5818 601.804 60.9726 603.145 58.7107C604.472 56.473 605.061 54.4818 604.409 51.9418C603.261 50.5568 602.896 50.3899 601.209 49.7188C597.005 50.2416 597.856 53.7031 595.221 56.0372C594.656 56.5397 593.781 56.6269 593.051 56.4748C591.816 56.219 590.822 55.4513 590.361 54.2722C589.722 52.637 590.26 50.388 590.957 48.8603C591.105 48.5365 591.268 48.2214 591.448 47.9149C591.627 47.6084 591.822 47.3123 592.033 47.0268C592.244 46.7401 592.469 46.465 592.709 46.2018C592.948 45.9385 593.2 45.6882 593.465 45.4509C593.73 45.2148 594.007 44.9923 594.294 44.7834C594.583 44.5746 594.881 44.3817 595.19 44.205C595.498 44.027 595.814 43.8657 596.139 43.7211C596.465 43.5765 596.797 43.4485 597.135 43.3373C600.418 42.2953 603.749 43.1019 606.701 44.7056C610.718 46.8915 614.245 50.2787 615.423 54.8024C616.495 58.9257 615.508 63.329 613.293 66.9072C610.193 71.9186 605.154 75.3281 599.428 76.6463C593.46 78.0201 586.266 77.488 581.008 74.1489C574.009 69.7067 571.008 61.1134 569.377 53.3989C569.24 53.5714 569.098 53.742 568.963 53.9163C566.46 57.1367 563.443 59.7712 560.442 62.5151C561.8 52.7112 560.636 39.3995 565.611 30.7654C566.146 29.8384 565.704 29.3934 565.28 28.4831C564.413 26.6142 562.787 25.1699 561.715 23.4068C559.136 19.1685 559.658 12.6685 559.809 7.89444C560.657 8.55323 561.514 9.20142 562.378 9.8392C563.411 10.5993 564.454 11.3558 565.533 12.0474C581.563 22.313 596.065 -1.20695 622.186 19.2594C626.254 22.4464 629.495 26.1563 633.001 29.9014C633.643 30.5893 633.833 30.7876 634.742 30.96L635.685 30.2239C636.938 25.2589 632.079 19.8415 631.955 14.8413C631.925 13.5824 632.633 12.3051 633.56 11.4578C636.3 8.95307 640.563 8.81393 644.074 8.9122C646.978 8.99192 651.474 9.07906 653.384 11.6302C656.381 15.6311 650.889 22.8209 650.688 27.2446C650.625 28.6517 650.895 29.9014 651.909 30.9304C653.191 30.4706 662.739 20.2847 665.453 18.2805C674.002 11.9677 684.819 8.7176 695.37 11.3039C699.853 12.4034 704.333 14.3853 708.92 14.9396C716.19 15.8184 721.101 12.0399 726.55 7.94072C726.637 18.0562 726.604 21.9161 720.168 29.9681C721.262 32.3801 722.875 35.0388 723.466 37.6158C725.173 45.0578 724.833 54.5355 725.965 62.4298C722.817 59.6729 719.982 56.7325 717.143 53.6623C715.583 59.8509 713.251 66.5346 708.751 71.2252C704.582 75.571 698.926 77.4064 692.984 77.3823C686.316 77.3582 679.576 74.6292 674.973 69.768C671.973 66.5976 670.249 62.6541 670.5 58.2509C670.745 53.944 672.881 50.0506 676.135 47.2566C679.466 44.3978 684.501 42.3918 688.945 42.9294C691.045 43.1853 692.942 44.1902 694.188 45.9125C695.578 47.8351 696.752 51.278 696.065 53.6363C695.684 54.9434 694.82 55.4903 693.735 56.1837C689.614 56.3153 689.133 51.1445 685.895 49.5723C685.135 49.2034 684.635 49.6002 683.893 49.8412C682.691 51.0871 681.471 52.4664 681.584 54.3389C681.807 57.9969 684.577 60.6908 687.347 62.6912C690.889 63.5626 694.237 63.6163 697.7 62.287C701.693 60.7556 704.974 57.4017 706.62 53.4805C706.818 52.9972 706.991 52.5054 707.14 52.0048C707.288 51.503 707.408 50.9955 707.502 50.4826C707.598 49.9684 707.666 49.4512 707.707 48.9308C707.749 48.4105 707.763 47.8889 707.75 47.3661C707.737 46.8445 707.697 46.3247 707.631 45.8069C707.564 45.289 707.47 44.776 707.35 44.268C707.23 43.76 707.084 43.2594 706.912 42.7663C706.738 42.2731 706.541 41.7899 706.319 41.3165C703.913 36.0826 698.902 32.2652 693.523 30.439C687.268 28.3162 679.778 28.5998 673.914 31.7683C666.05 36.0195 663.268 44.0734 660.996 52.0975C658.118 49.0328 655.06 46.2796 651.887 43.5227C654.211 54.1814 652.156 66.7737 658.096 76.3497C651.844 83.8324 651.374 89.3073 651.666 98.7757Z" fill="#F0F0F0"/>
</svg>
